name analog
datacolumns 19
datarows 36
range 0.3035 0.321
endheader
time	ground_force_vx	ground_force_vy	ground_force_vz	ground_force_px	ground_force_py	ground_force_pz	l_ground_force_vx	l_ground_force_vy	l_ground_force_vz	l_ground_force_px	l_ground_force_py	l_ground_force_pz	ground_torque_x	ground_torque_y	ground_torque_z	l_ground_torque_x	l_ground_torque_y	l_ground_torque_z
0.3035	-0.0	-0.0	-0.0	-0.0	-0.0	-0.0	-3.0864574909210205	2.935947895050049	-927.4310302734376	-0.0	-0.0	-0.0	-0.0	-0.0	-0.0	271185.71875	32424.6796875	-1084.6893310546875
0.304	-0.0	-0.0	-0.0	-0.0	-0.0	-0.0	-4.637167930603027	3.931662082672119	-929.2723999023438	-0.0	-0.0	-0.0	-0.0	-0.0	-0.0	272006.03125	33049.64453125	-1686.86474609375
0.3045	-0.0	-0.0	-0.0	-0.0	-0.0	-0.0	-5.878993988037109	4.616703987121582	-931.0177612304688	-0.0	-0.0	-0.0	-0.0	-0.0	-0.0	272909.59375	33956.27734375	-2325.70556640625
0.305	-0.0	-0.0	-0.0	-0.0	-0.0	-0.0	-6.988854885101318	5.301595687866211	-932.8480834960938	-0.0	-0.0	-0.0	-0.0	-0.0	-0.0	273683.0	34885.84375	-2748.703125
0.3055	-0.0	-0.0	-0.0	-0.0	-0.0	-0.0	-7.360990524291992	5.738914012908936	-932.1574096679688	-0.0	-0.0	-0.0	-0.0	-0.0	-0.0	274101.09375	35432.45703125	-3103.33447265625
0.306	-0.0	-0.0	-0.0	-0.0	-0.0	-0.0	-7.983970642089844	6.092369079589844	-930.7454833984376	-0.0	-0.0	-0.0	-0.0	-0.0	-0.0	273882.5625	35905.64453125	-3482.69970703125
0.3065	-0.0	-0.0	-0.0	-0.0	-0.0	-0.0	-8.850902557373047	6.955731391906738	-927.69580078125	-0.0	-0.0	-0.0	-0.0	-0.0	-0.0	273171.46875	36467.171875	-3891.052734375
0.307	-0.0	-0.0	-0.0	-0.0	-0.0	-0.0	-9.471502304077148	7.088787078857422	-922.5446166992188	-0.0	-0.0	-0.0	-0.0	-0.0	-0.0	272104.59375	36649.95703125	-4090.830810546875
0.3075	-0.0	-0.0	-0.0	-0.0	-0.0	-0.0	-10.069239616394045	6.602327823638916	-917.1306762695312	-0.0	-0.0	-0.0	-0.0	-0.0	-0.0	270858.0625	37314.33984375	-4574.125
0.308	-0.0	-0.0	-0.0	-0.0	-0.0	-0.0	-11.910046577453612	5.873805999755859	-912.506103515625	-0.0	-0.0	-0.0	-0.0	-0.0	-0.0	269740.1875	37748.58984375	-5027.82568359375
0.3085	-0.0	-0.0	-0.0	-0.0	-0.0	-0.0	-14.128238677978516	5.564861297607422	-908.138671875	-0.0	-0.0	-0.0	-0.0	-0.0	-0.0	269012.4375	37959.453125	-5800.6884765625
0.309	-0.0	-0.0	-0.0	-0.0	-0.0	-0.0	-16.10122299194336	4.5698957443237305	-909.451416015625	-0.0	-0.0	-0.0	-0.0	-0.0	-0.0	269116.78125	38447.16796875	-6551.28271484375
0.3095	-0.0	-0.0	-0.0	-0.0	-0.0	-0.0	-17.365169525146484	4.195214748382568	-914.4285888671876	-0.0	-0.0	-0.0	-0.0	-0.0	-0.0	270593.53125	38261.9609375	-7063.9208984375
0.31	-0.0	-0.0	-0.0	-0.0	-0.0	-0.0	-16.411596298217773	4.151220321655273	-919.403564453125	-0.0	-0.0	-0.0	-0.0	-0.0	-0.0	272546.96875	37661.46875	-6996.515625
0.3105	-0.0	-0.0	-0.0	-0.0	-0.0	-0.0	-14.260459899902344	3.643336296081543	-926.0365600585938	-0.0	-0.0	-0.0	-0.0	-0.0	-0.0	274973.03125	37244.03515625	-6298.0830078125
0.311	-0.0	-0.0	-0.0	-0.0	-0.0	-0.0	-11.133487701416016	3.3345680236816406	-932.583984375	-0.0	-0.0	-0.0	-0.0	-0.0	-0.0	277288.34375	36226.58203125	-5672.90234375
0.3115	-0.0	-0.0	-0.0	-0.0	-0.0	-0.0	-9.070125579833984	2.957676410675049	-939.302978515625	-0.0	-0.0	-0.0	-0.0	-0.0	-0.0	279443.03125	35862.0	-5049.07861328125
0.312	-0.0	-0.0	-0.0	-0.0	-0.0	-0.0	-7.475179195404053	2.8912453651428223	-946.200927734375	-0.0	-0.0	-0.0	-0.0	-0.0	-0.0	282108.0625	35225.12890625	-4936.31494140625
0.3125	-0.0	-0.0	-0.0	-0.0	-0.0	-0.0	-6.896945953369141	3.688379287719727	-953.8822021484376	-0.0	-0.0	-0.0	-0.0	-0.0	-0.0	284643.84375	34706.07421875	-4787.40087890625
0.313	-0.0	-0.0	-0.0	-0.0	-0.0	-0.0	-5.701465606689453	4.89970588684082	-961.1256713867188	-0.0	-0.0	-0.0	-0.0	-0.0	-0.0	286811.8125	34352.9765625	-4726.4482421875
0.3135	-0.0	-0.0	-0.0	-0.0	-0.0	-0.0	-4.946929454803467	5.914092540740967	-967.930419921875	-0.0	-0.0	-0.0	-0.0	-0.0	-0.0	289348.25	34004.19921875	-4681.373046875
0.314	-0.0	-0.0	-0.0	-0.0	-0.0	-0.0	-4.877187728881836	6.535804748535156	-971.4290161132812	-0.0	-0.0	-0.0	-0.0	-0.0	-0.0	290920.09375	34079.5859375	-4673.576171875
0.3145	-0.0	-0.0	-0.0	-0.0	-0.0	-0.0	-4.658386707305908	7.597796440124512	-971.68896484375	-0.0	-0.0	-0.0	-0.0	-0.0	-0.0	291636.875	34397.38671875	-4762.103515625
0.315	-0.0	-0.0	-0.0	-0.0	-0.0	-0.0	-5.431704998016357	8.809480667114258	-970.1226196289062	-0.0	-0.0	-0.0	-0.0	-0.0	-0.0	291257.28125	34487.0234375	-5089.41650390625
0.3155	-0.0	-0.0	-0.0	-0.0	-0.0	-0.0	-6.055163383483887	9.803707122802734	-965.4144897460938	-0.0	-0.0	-0.0	-0.0	-0.0	-0.0	290159.78125	34712.3515625	-5392.16455078125
0.316	-0.0	-0.0	-0.0	-0.0	-0.0	-0.0	-6.988156318664551	10.729636192321776	-960.4487915039062	-0.0	-0.0	-0.0	-0.0	-0.0	-0.0	288557.09375	35528.31640625	-5637.43994140625
0.3165	-0.0	-0.0	-0.0	-0.0	-0.0	-0.0	-8.338813781738281	9.701727867126465	-954.1531372070312	-0.0	-0.0	-0.0	-0.0	-0.0	-0.0	286842.09375	35643.42578125	-5965.93798828125
0.317	-0.0	-0.0	-0.0	-0.0	-0.0	-0.0	-10.152417182922363	9.345788955688477	-947.869140625	-0.0	-0.0	-0.0	-0.0	-0.0	-0.0	285173.0	36207.19140625	-6271.65185546875
0.3175	-0.0	-0.0	-0.0	-0.0	-0.0	-0.0	-11.798534393310549	8.36758041381836	-942.9818725585938	-0.0	-0.0	-0.0	-0.0	-0.0	-0.0	284219.15625	36468.3046875	-6733.4921875
0.318	-0.0	-0.0	-0.0	-0.0	-0.0	-0.0	-13.391549110412598	7.726266384124756	-940.94873046875	-0.0	-0.0	-0.0	-0.0	-0.0	-0.0	283607.59375	36554.21484375	-7104.9990234375
0.3185	-0.0	-0.0	-0.0	-0.0	-0.0	-0.0	-13.973955154418944	7.768312454223633	-938.7020263671876	-0.0	-0.0	-0.0	-0.0	-0.0	-0.0	283156.03125	36521.4375	-7069.3486328125
0.319	-0.0	-0.0	-0.0	-0.0	-0.0	-0.0	-14.1937255859375	7.972105979919434	-938.4450073242188	-0.0	-0.0	-0.0	-0.0	-0.0	-0.0	283207.5	36408.12109375	-6912.0146484375
0.3195	-0.0	-0.0	-0.0	-0.0	-0.0	-0.0	-12.848729133605955	8.46461009979248	-938.0787353515624	-0.0	-0.0	-0.0	-0.0	-0.0	-0.0	283096.625	36017.05078125	-6745.51806640625
0.32	-0.0	-0.0	-0.0	-0.0	-0.0	-0.0	-12.550185203552246	8.67403507232666	-937.1040649414062	-0.0	-0.0	-0.0	-0.0	-0.0	-0.0	283049.375	35659.94921875	-6429.78662109375
0.3205	-0.0	-0.0	-0.0	-0.0	-0.0	-0.0	-12.129945755004885	8.413888931274414	-937.1229248046876	-0.0	-0.0	-0.0	-0.0	-0.0	-0.0	282991.28125	35548.4609375	-6132.95263671875
0.321	-0.0	-0.0	-0.0	-0.0	-0.0	-0.0	-11.49063777923584	7.977481842041016	-939.3822021484376	-0.0	-0.0	-0.0	-0.0	-0.0	-0.0	283656.0625	35406.5234375	-5976.46728515625
